<?xml version="1.0" encoding="utf-8"?>
<!-- Generator: Adobe Illustrator 19.2.0, SVG Export Plug-In . SVG Version: 6.00 Build 0)  -->
<svg version="1.1" id="Layer_1" xmlns="http://www.w3.org/2000/svg" xmlns:xlink="http://www.w3.org/1999/xlink" x="0px" y="0px"
	 viewBox="0 0 145 30" style="enable-background:new 0 0 145 30;" xml:space="preserve">
<style type="text/css">
	.st0{fill:#FFFFFF;}
</style>
<title>Dashboard_main icons</title>
<g>
	<path class="st0" d="M9.6,14.3h6.7c-0.9,3.1-3.7,5.3-7,5.3c-4,0-7.3-3.3-7.3-7.3c0-4,3.3-7.3,7.3-7.3c3,0,5.6,1.9,6.7,4.5h2
		c-1.2-3.7-4.6-6.4-8.7-6.4c-5,0-9.1,4.1-9.1,9.1c0,5,4.1,9.1,9.1,9.1c2.9,0,5.6-1.4,7.1-3.5v3.1H18v-8.6H9.6V14.3z"/>
	<rect x="21.1" y="3.8" class="st0" width="1.8" height="17.3"/>
	<rect x="75" y="3.8" class="st0" width="1.8" height="17.3"/>
	<path class="st0" d="M32.5,19.8c-2.8,0-5.1-2.4-5.1-5.2c0-2.8,2.3-5.2,5.1-5.2c2.8,0,5.1,2.4,5.1,5.2
		C37.5,17.4,35.3,19.8,32.5,19.8 M32.5,7.7c-3.8,0-6.9,3.1-6.9,6.9c0,3.8,3.1,6.9,6.9,6.9c3.8,0,6.9-3.1,6.9-6.9
		C39.4,10.8,36.3,7.7,32.5,7.7"/>
	<path class="st0" d="M48.4,19.8c-2.8,0-5.1-2.4-5.1-5.2c0-2.8,2.3-5.2,5.1-5.2c2.8,0,5.1,2.4,5.1,5.2
		C53.5,17.4,51.2,19.8,48.4,19.8 M48.5,7.6c-2.1,0-3.9,0.9-5.2,2.3V3.8h-1.8v17.3h1.8v-1.7c1.3,1.4,3.1,2.3,5.2,2.3c3.8,0,7-3.2,7-7
		C55.5,10.7,52.4,7.6,48.5,7.6"/>
	<path class="st0" d="M64.9,19.8c-2.8,0-5.1-2.4-5.1-5.2c0-2.8,2.3-5.2,5.1-5.2c2.8,0,5.1,2.4,5.1,5.2C70,17.4,67.7,19.8,64.9,19.8
		 M70,9.9c-1.3-1.4-3.2-2.4-5.3-2.4c-3.9,0-7.1,3.2-7.1,7.1c0,3.9,3.2,7,7.1,7.1c2.1,0,4-0.9,5.3-2.4v1.8h1.8V8.4H70V9.9z"/>
	<rect x="124.9" y="2" class="st0" width="3.2" height="3.1"/>
	<polygon class="st0" points="83.4,3.8 80.4,3.8 80.4,18.3 80.4,21.1 90.1,21.1 90.1,18.3 83.4,18.3 	"/>
	<rect x="124.9" y="7.5" class="st0" width="3.2" height="13.6"/>
	<path class="st0" d="M98.3,18.7c-2.2,0-3.9-1.9-3.9-4.2s1.8-4.2,3.9-4.2c2.2,0,3.9,1.9,3.9,4.2S100.5,18.7,98.3,18.7 M98.3,7.4
		c-3.9,0-7.1,3.2-7.1,7.1c0,3.9,3.2,7.1,7.1,7.1c3.9,0,7.1-3.2,7.1-7.1C105.4,10.6,102.3,7.4,98.3,7.4"/>
	<path class="st0" d="M141.6,16.4c-0.6,1.4-2,2.3-3.5,2.3c-2.2,0-3.9-1.9-3.9-4.2c0-2.5,1.8-4.2,3.9-4.2c1.5,0,2.7,0.9,3.4,2.1h3.4
		c-0.9-2.9-3.6-5-6.8-5c-3.9,0-7.1,3.2-7.1,7.1c0,3.9,3.2,7.1,7.1,7.1c3.3,0,6-2.2,6.9-5.2H141.6z"/>
	<path class="st0" d="M114.1,25.8c-1.4,0-2.8-0.8-3.7-1.9l-2.9,1.4c1.4,2.1,3.6,3.5,6.5,3.5c3.8,0,6.9-3,7.2-6.6h-3.2
		C117.8,24.2,116.1,25.8,114.1,25.8"/>
	<path class="st0" d="M114.3,18.8c-2.2,0-3.9-1.9-3.9-4.2c0-2.3,1.8-4.2,3.9-4.2c2.2,0,3.9,1.9,3.9,4.2
		C118.2,16.9,116.4,18.8,114.3,18.8 M118.4,8.9c-1.2-0.8-2.6-1.4-4.2-1.4c-3.9,0-7.1,3.2-7.1,7.1c0,3.9,3.2,7.1,7.1,7.1
		c3.9,0,7.1-3.2,7.1-7V7.5h-2.9V8.9z"/>
</g>
</svg>
